<?xml version="1.0" encoding="utf-8"?>
<!-- Generator: Adobe Illustrator 25.4.1, SVG Export Plug-In . SVG Version: 6.00 Build 0)  -->
<svg version="1.1" id="Слой_1" xmlns="http://www.w3.org/2000/svg" xmlns:xlink="http://www.w3.org/1999/xlink" x="0px" y="0px"
	 viewBox="0 0 12 12" style="enable-background:new 0 0 12 12;" xml:space="preserve">
<style type="text/css">
	.st0{fill:none;}
	.st1{fill:#1D1D1D;}
</style>
<desc>Created with Sketch.</desc>
<g id="Icons">
	<g id="Rounded" transform="translate(-548.000000, -1000.000000)">
		<g id="AV" transform="translate(100.000000, 852.000000)">
			<g id="_x2D_Round-_x2F_-AV-_x2F_-skip_x5F_next" transform="translate(442.000000, 142.000000)">
				<g>
					<path class="st0" d="M22.7,19c-2.8,0.1-4.9-2.4-5-5c0.1,0.6,0.1,0.6,0,0c-0.1-0.6-0.2-1.2-0.2-1.8c0-0.4,0-0.9,0-1.3
						c0-0.1,0-0.4,0-0.7c0-0.1-0.1-0.2-0.1-0.4c-0.1-0.3-0.2-0.5-0.3-0.8c-0.8-2.7,1-5.3,3.5-6.2c2.6-0.9,5.4,1,6.2,3.5
						c0.4,1.4,0.7,2.7,0.7,4.1c0,0.6,0,1.2,0.1,1.8c-0.1-0.6-0.1-0.6,0,0c0,0.2,0.1,0.4,0.1,0.6V0h-24v24h24v-8.9
						C27.1,17.4,24.9,18.9,22.7,19z"/>
					<path class="st1" d="M11.2,7.1c-0.7-0.4-1.6,0-1.6,0.8V16c0,0.9,0.9,1.4,1.6,0.9l5.8-4.1c0.6-0.4,0.6-1.2,0-1.6L11.2,7.1z"/>
				</g>
			</g>
		</g>
	</g>
</g>
</svg>
